<?xml version="1.0" standalone="no"?><!DOCTYPE svg PUBLIC "-//W3C//DTD SVG 1.1//EN" "http://www.w3.org/Graphics/SVG/1.1/DTD/svg11.dtd"><svg t="1705549740218" class="icon" viewBox="0 0 1024 1024" version="1.1" xmlns="http://www.w3.org/2000/svg" p-id="2872" xmlns:xlink="http://www.w3.org/1999/xlink" width="200" height="200"><path d="M579.456 128c31.008 0 58.016 22.08 65.504 53.568L677.984 320H800v64h-106.72l30.528 128H832v64l-96.128 0.032-0.256 3.264 61.76 226.56c10.24 37.568-10.496 76.704-46.368 87.424a64.8 64.8 0 0 1-50.048-5.44l-4.992-3.072L512 760.992l-183.968 123.776a64.96 64.96 0 0 1-55.04 8.512c-35.84-10.72-56.64-49.856-46.4-87.392l61.792-226.592L288.192 576H192v-64h108.16l30.528-128H224v-64h121.984l33.056-138.432c7.072-29.76 31.584-51.072 60.384-53.376l5.12-0.192h134.912z m103.968 517.632l-108.992 73.312 158.048 106.368-49.056-179.68z m-342.88 0L291.52 825.312l158.016-106.368-108.992-73.312zM661.984 576H361.92L512 676.928 661.984 576z m-49.952-192h-200.128l-34.944 128h269.984l-34.912-128z m-50.56-185.28h-98.976L429.376 320h165.184l-33.056-121.28z" p-id="2873"></path></svg>