<?xml version="1.0" standalone="no"?><!DOCTYPE svg PUBLIC "-//W3C//DTD SVG 1.1//EN" "http://www.w3.org/Graphics/SVG/1.1/DTD/svg11.dtd"><svg t="1700009365299" class="icon" viewBox="0 0 1024 1024" version="1.1" xmlns="http://www.w3.org/2000/svg" p-id="2854" xmlns:xlink="http://www.w3.org/1999/xlink" width="200" height="200"><path d="M736 64H288c-35.2 0-64 28.8-64 64v128h-32v128h32v512c0 35.2 28.8 64 64 64h448c35.2 0 64-28.8 64-64V384h32V256h-32V128c0-35.2-28.8-64-64-64zM288 512V128h448v384H288z m0 384V576h448v320H288z m384-288h-64v64h64v-64z m-128 0h-64v64h64v-64z m-128 0h-64v64h64v-64z m256 96h-64v64h64v-64z m-128 0h-64v64h64v-64z m-128 0h-64v64h64v-64z m256 96h-64v64h64v-64z m-128 0h-64v64h64v-64z m-128 0h-64v64h64v-64z" p-id="2855"></path></svg>