<?xml version="1.0" standalone="no"?><!DOCTYPE svg PUBLIC "-//W3C//DTD SVG 1.1//EN" "http://www.w3.org/Graphics/SVG/1.1/DTD/svg11.dtd"><svg t="1700009375096" class="icon" viewBox="0 0 1024 1024" version="1.1" xmlns="http://www.w3.org/2000/svg" p-id="2993" xmlns:xlink="http://www.w3.org/1999/xlink" width="200" height="200"><path d="M153.518 856.463h-50.463v-48.060h50.39v48.060h0.073zM254.298 808.403h-50.39v48.060h50.39v-48.060zM355.077 808.403h-50.39v48.060h50.39v-48.060zM455.857 808.403h-50.39v48.060h50.39v-48.060zM920.945 664.151v48.278h100.78v246.27h-100.78v47.914h-100.852v-47.914h-616.185v47.914h-100.852v-47.914h-100.78v-246.27h100.78v-48.278h-100.78v-240.007h1019.449v240.080l-100.78-0.073zM971.407 616.238v-144.179h-918.742v144.179h918.742zM52.666 760.417v150.223h918.669v-150.223h-918.669zM820.092 664.151h-616.185v48.278h616.185v-48.278zM103.055 568.178h50.39v-47.914h-50.39v47.914zM203.908 568.178h50.39v-47.914h-50.39v47.914zM304.688 568.178h50.39v-47.914h-50.39v47.914zM405.468 568.178h50.39v-47.914h-50.39v47.914zM870.555 568.178h50.39v-47.914h-50.39v47.914zM769.775 568.178h50.317v-47.914h-50.317v47.914zM820.092 862.361h-3.131v-53.958h103.984v53.958h-100.852z" p-id="2994"></path><path d="M845.36 319.65c-13.327-0.033-24.117-10.844-24.117-24.176 0-7.405 3.329-14.032 8.572-18.466 30.827-26.047 50.249-64.689 50.249-107.867 0-38.94-15.796-74.189-41.328-99.692-4.374-4.384-7.079-10.432-7.079-17.114 0-13.379 10.847-24.225 24.225-24.225 6.7 0 12.763 2.719 17.149 7.114 34.235 34.257 55.406 81.571 55.406 133.829 0 58.028-26.107 109.958-67.213 144.688-4.437 3.762-9.866 5.91-15.796 5.91-0.023 0-0.048 0-0.071 0zM768.464 287.902c5.68 0 10.923-1.893 15.146-5.243 33.58-26.777 54.909-67.683 54.909-113.572 0-39.841-16.079-75.927-42.101-102.123-4.352-4.414-10.409-7.152-17.104-7.152-6.695 0-12.752 2.738-17.11 7.156-4.38 4.356-7.088 10.382-7.088 17.042 0 6.659 2.709 12.686 7.085 17.038 17.347 17.43 28.071 41.467 28.071 68.005 0 30.589-14.246 57.852-36.465 75.514-5.807 4.605-9.373 11.424-9.373 19.076 0 5.697 1.977 10.932 5.28 15.056 4.402 5.571 11.201 9.158 18.841 9.201zM449.377 319.65c7.209 0 13.836-3.058 18.422-8.666 3.572-4.169 5.748-9.628 5.748-15.595 0-7.375-3.323-13.973-8.551-18.382-30.837-25.879-50.281-64.395-50.281-107.452 0-0.148 0-0.295 0.001-0.444 0-37.77 14.637-73.159 41.215-99.665 4.351-4.393 7.038-10.438 7.038-17.113 0-6.674-2.687-12.719-7.041-17.115-4.39-4.349-10.437-7.036-17.11-7.036-6.674 0-12.719 2.687-17.115 7.041-35.679 35.679-55.34 83.229-55.34 133.909-0.001 0.173-0.001 0.377-0.001 0.581 0 57.811 26.092 109.529 67.141 144.018 4.407 3.767 9.801 5.917 15.697 5.917 0.062 0 0.123 0 0.185-0.001zM525.981 287.902c0.052 0 0.115 0.001 0.177 0.001 13.312 0 24.102-10.79 24.102-24.102 0-7.698-3.609-14.555-9.229-18.966-22.398-17.716-36.607-44.832-36.607-75.266 0-0.126 0-0.252 0.001-0.378 0-25.685 9.977-49.861 28.108-68.065 4.377-4.353 7.086-10.38 7.086-17.039 0-6.659-2.709-12.686-7.085-17.038-4.362-4.422-10.417-7.162-17.114-7.162-6.695 0-12.752 2.738-17.11 7.156-27.309 27.236-42.237 63.5-42.237 102.165-0.001 0.225-0.002 0.492-0.002 0.758 0 45.674 21.411 86.347 54.743 112.531 4.351 3.455 9.534 5.404 15.17 5.404zM623.12 259.066v205.856h48.423v-205.856h-48.423zM647.295 173.942zM584.453 173.942c0.041-34.716 28.193-62.842 62.914-62.842 34.747 0 62.914 28.167 62.914 62.914 0 0.027 0 0.051 0 0.076-0.041 34.711-28.193 62.838-62.914 62.838-34.747 0-62.914-28.167-62.914-62.914 0-0.027 0-0.051 0-0.076M647.295 260.96c47.003-1.402 84.572-39.84 84.572-87.054s-37.569-85.652-84.444-87.051c-46.353 2.385-82.929 40.446-82.929 87.051 0 46.605 36.576 84.666 82.589 87.044zM647.295 135.203c20.66 0.924 37.059 17.899 37.059 38.703s-16.4 37.779-36.977 38.7c-21.457 0.003-38.786-17.325-38.786-38.7 0-21.375 17.327-38.703 38.703-38.703z" p-id="2995"></path></svg>