<?xml version="1.0" standalone="no"?><!DOCTYPE svg PUBLIC "-//W3C//DTD SVG 1.1//EN" "http://www.w3.org/Graphics/SVG/1.1/DTD/svg11.dtd"><svg t="1691980908562" class="icon" viewBox="0 0 1024 1024" version="1.1" xmlns="http://www.w3.org/2000/svg" p-id="1082" xmlns:xlink="http://www.w3.org/1999/xlink" width="200" height="200"><path d="M184.32 92.16c-81.92 0-143.36 61.44-143.36 143.36 0 66.56 46.08 122.88 107.52 138.24V896c0 20.48 15.36 40.96 40.96 40.96S230.4 921.6 230.4 896V373.76c51.2-15.36 97.28-71.68 97.28-138.24 0-81.92-66.56-143.36-143.36-143.36z m0 209.92c-35.84 0-66.56-30.72-66.56-66.56s30.72-66.56 66.56-66.56 66.56 30.72 66.56 66.56-30.72 66.56-66.56 66.56z m368.64 71.68V128c0-20.48-15.36-40.96-40.96-40.96s-40.96 20.48-40.96 40.96v245.76c-56.32 15.36-102.4 71.68-102.4 138.24s46.08 122.88 107.52 138.24V896c0 20.48 15.36 40.96 40.96 40.96s40.96-15.36 40.96-40.96V650.24C619.52 634.88 665.6 578.56 665.6 512s-56.32-122.88-112.64-138.24zM512 578.56c-35.84 0-66.56-30.72-66.56-66.56s30.72-66.56 66.56-66.56 66.56 30.72 66.56 66.56-30.72 66.56-66.56 66.56z m368.64 71.68V128c0-20.48-15.36-40.96-40.96-40.96S798.72 102.4 798.72 128v522.24a143.104 143.104 0 0 0 35.84 281.6c76.8 0 143.36-66.56 143.36-143.36 5.12-66.56-35.84-122.88-97.28-138.24z m-40.96 209.92c-35.84 0-66.56-30.72-66.56-66.56s30.72-66.56 66.56-66.56 66.56 30.72 66.56 66.56-25.6 66.56-66.56 66.56z" p-id="1083"></path></svg>