<?xml version="1.0" standalone="no"?><!DOCTYPE svg PUBLIC "-//W3C//DTD SVG 1.1//EN" "http://www.w3.org/Graphics/SVG/1.1/DTD/svg11.dtd"><svg t="1691981050311" class="icon" viewBox="0 0 1024 1024" version="1.1" xmlns="http://www.w3.org/2000/svg" p-id="1803" xmlns:xlink="http://www.w3.org/1999/xlink" width="200" height="200"><path d="M332.8 931.84H199.68c-5.12 0-5.12-5.12-5.12-10.24V97.28c0-5.12 5.12-5.12 5.12-5.12h624.64c5.12 0 5.12 5.12 5.12 5.12v230.4c0 20.48 15.36 40.96 40.96 40.96s40.96-15.36 40.96-40.96V97.28c0-46.08-35.84-81.92-81.92-81.92H199.68c-46.08-5.12-87.04 35.84-87.04 81.92v829.44c0 46.08 35.84 87.04 81.92 87.04h133.12c20.48 0 40.96-15.36 40.96-40.96s-15.36-40.96-35.84-40.96z" p-id="1804"></path><path d="M358.4 266.24c-20.48 0-40.96 20.48-40.96 40.96s20.48 40.96 40.96 40.96h307.2c20.48 0 40.96-15.36 40.96-40.96s-20.48-40.96-40.96-40.96H358.4z m552.96 256L701.44 460.8h-20.48l-209.92 61.44c-15.36 5.12-25.6 20.48-25.6 35.84v128c0 148.48 97.28 281.6 235.52 327.68h20.48c143.36-46.08 235.52-179.2 235.52-327.68v-128c5.12-15.36-5.12-30.72-25.6-35.84z m-46.08 163.84c0 112.64-66.56 209.92-174.08 250.88C588.8 896 517.12 798.72 517.12 686.08V588.8l174.08-51.2 174.08 51.2v97.28z" p-id="1805"></path><path d="M650.24 655.36v35.84H614.4c-20.48 0-40.96 15.36-40.96 40.96s15.36 40.96 40.96 40.96h35.84v35.84c0 20.48 15.36 40.96 40.96 40.96s40.96-15.36 40.96-40.96V768H768c20.48 0 40.96-15.36 40.96-40.96S793.6 686.08 768 686.08h-35.84v-35.84c0-20.48-15.36-40.96-40.96-40.96s-40.96 25.6-40.96 46.08z" p-id="1806"></path></svg>