<?xml version="1.0" standalone="no"?><!DOCTYPE svg PUBLIC "-//W3C//DTD SVG 1.1//EN" "http://www.w3.org/Graphics/SVG/1.1/DTD/svg11.dtd"><svg t="1691981032452" class="icon" viewBox="0 0 1024 1024" version="1.1" xmlns="http://www.w3.org/2000/svg" p-id="1658" xmlns:xlink="http://www.w3.org/1999/xlink" width="200" height="200"><path d="M727.04 368.64c-71.68 0-128 15.36-174.08 40.96V215.04c0-81.92-107.52-143.36-250.88-143.36-148.48-5.12-256 61.44-256 143.36v593.92c0 81.92 107.52 143.36 250.88 143.36 92.16 0 168.96-25.6 215.04-66.56 46.08 40.96 122.88 66.56 215.04 66.56 143.36 0 250.88-61.44 250.88-143.36V512c0-81.92-107.52-143.36-250.88-143.36z m174.08 291.84c0 25.6-71.68 66.56-174.08 66.56s-174.08-40.96-174.08-66.56V614.4c46.08 25.6 107.52 40.96 174.08 40.96 71.68 0 128-15.36 174.08-40.96v46.08zM471.04 363.52c0 25.6-71.68 66.56-174.08 66.56-107.52 0-174.08-40.96-174.08-66.56v-46.08c46.08 25.6 107.52 40.96 174.08 40.96 71.68 0 128-15.36 174.08-40.96v46.08zM296.96 506.88c71.68 0 128-15.36 174.08-40.96V512c0 25.6-71.68 66.56-174.08 66.56-107.52 0-174.08-40.96-174.08-66.56v-46.08c46.08 25.6 107.52 40.96 174.08 40.96zM122.88 619.52c46.08 25.6 107.52 40.96 174.08 40.96 71.68 0 128-15.36 174.08-40.96v46.08c0 25.6-71.68 66.56-174.08 66.56-107.52 0-174.08-40.96-174.08-66.56v-46.08z m604.16-174.08c107.52 0 174.08 40.96 174.08 66.56s-71.68 66.56-174.08 66.56S552.96 537.6 552.96 512s66.56-66.56 174.08-66.56zM296.96 143.36c107.52 0 174.08 40.96 174.08 66.56s-66.56 71.68-174.08 71.68c-107.52 0-174.08-40.96-174.08-66.56s71.68-71.68 174.08-71.68z m0 737.28c-107.52 0-174.08-40.96-174.08-66.56V768c46.08 25.6 107.52 40.96 174.08 40.96 71.68 0 128-15.36 174.08-40.96v46.08c0 25.6-66.56 66.56-174.08 66.56z m430.08 0c-107.52 0-174.08-40.96-174.08-66.56V768c46.08 25.6 107.52 40.96 174.08 40.96 71.68 0 128-15.36 174.08-40.96v40.96c0 30.72-71.68 71.68-174.08 71.68z" p-id="1659"></path></svg>