<?xml version="1.0" standalone="no"?><!DOCTYPE svg PUBLIC "-//W3C//DTD SVG 1.1//EN" "http://www.w3.org/Graphics/SVG/1.1/DTD/svg11.dtd"><svg t="1691981125405" class="icon" viewBox="0 0 1024 1024" version="1.1" xmlns="http://www.w3.org/2000/svg" p-id="2379" xmlns:xlink="http://www.w3.org/1999/xlink" width="200" height="200"><path d="M906.24 153.6l-384-112.64h-20.48l-384 112.64c-15.36 5.12-25.6 15.36-25.6 35.84v230.4c0 256 163.84 486.4 409.6 568.32h20.48c245.76-81.92 409.6-307.2 409.6-568.32v-230.4c0-20.48-10.24-30.72-25.6-35.84z m-46.08 261.12c0 220.16-138.24 414.72-343.04 491.52-204.8-76.8-348.16-271.36-348.16-491.52V215.04l348.16-102.4 343.04 102.4v199.68z" p-id="2380"></path><path d="M296.96 435.2c0 107.52 87.04 194.56 194.56 194.56 40.96 0 76.8-10.24 107.52-30.72l15.36 15.36 61.44 61.44c15.36 15.36 40.96 15.36 56.32 0s15.36-40.96 0-56.32L665.6 563.2l-20.48-20.48c20.48-30.72 30.72-66.56 30.72-107.52 0-107.52-87.04-194.56-194.56-194.56-102.4 5.12-184.32 87.04-184.32 194.56z m307.2 0c0 61.44-51.2 112.64-112.64 112.64s-112.64-51.2-112.64-112.64 51.2-112.64 112.64-112.64 112.64 51.2 112.64 112.64z" p-id="2381"></path></svg>