<?xml version="1.0" standalone="no"?><!DOCTYPE svg PUBLIC "-//W3C//DTD SVG 1.1//EN" "http://www.w3.org/Graphics/SVG/1.1/DTD/svg11.dtd"><svg t="1691980992930" class="icon" viewBox="0 0 1024 1024" version="1.1" xmlns="http://www.w3.org/2000/svg" p-id="1369" xmlns:xlink="http://www.w3.org/1999/xlink" width="200" height="200"><path d="M936.96 112.64H87.04c-20.48 0-40.96 15.36-40.96 40.96v552.96c0 20.48 15.36 40.96 40.96 40.96h389.12v97.28H256c-20.48 0-40.96 15.36-40.96 40.96s15.36 40.96 40.96 40.96h512c20.48 0 40.96-15.36 40.96-40.96S793.6 844.8 768 844.8H547.84v-97.28h389.12c20.48 0 40.96-15.36 40.96-40.96V148.48c0-20.48-20.48-35.84-40.96-35.84zM901.12 665.6H122.88V189.44h778.24V665.6z" p-id="1370"></path><path d="M343.04 593.92c20.48 0 40.96-15.36 40.96-40.96v-81.92c0-20.48-15.36-40.96-40.96-40.96s-40.96 20.48-40.96 40.96v87.04c0 15.36 20.48 35.84 40.96 35.84z m168.96 0c20.48 0 40.96-15.36 40.96-35.84V384c0-20.48-15.36-40.96-40.96-40.96s-40.96 20.48-40.96 40.96v168.96c0 20.48 20.48 40.96 40.96 40.96z m168.96 0c20.48 0 40.96-15.36 40.96-40.96v-256c0-20.48-15.36-40.96-40.96-40.96S640 271.36 640 296.96v256c5.12 20.48 20.48 40.96 40.96 40.96z" p-id="1371"></path></svg>