<?xml version="1.0" standalone="no"?><!DOCTYPE svg PUBLIC "-//W3C//DTD SVG 1.1//EN" "http://www.w3.org/Graphics/SVG/1.1/DTD/svg11.dtd"><svg t="1691980970521" class="icon" viewBox="0 0 1024 1024" version="1.1" xmlns="http://www.w3.org/2000/svg" p-id="1225" xmlns:xlink="http://www.w3.org/1999/xlink" width="200" height="200"><path d="M896 215.04H128c-46.08 0-81.92 40.96-81.92 81.92v552.96c0 46.08 35.84 81.92 81.92 81.92h768c46.08 0 81.92-35.84 81.92-81.92V296.96c0-40.96-35.84-81.92-81.92-81.92z m5.12 640s-5.12 5.12 0 0L128 860.16s-5.12 0-5.12-5.12V296.96s0-5.12 5.12-5.12h768s5.12 0 5.12 5.12v558.08z" p-id="1226"></path><path d="M640 573.44c20.48 0 40.96-15.36 40.96-35.84S665.6 496.64 640 496.64h-56.32l61.44-61.44c15.36-15.36 15.36-40.96 0-56.32s-40.96-15.36-56.32 0l-76.8 76.8-81.92-76.8c-15.36-15.36-40.96-15.36-56.32 0s-15.36 40.96 0 56.32l61.44 61.44H384c-20.48 0-40.96 15.36-40.96 40.96s15.36 35.84 40.96 35.84h92.16v51.2H384c-20.48 0-40.96 15.36-40.96 40.96s15.36 40.96 40.96 40.96h92.16v46.08c0 20.48 15.36 40.96 40.96 40.96s40.96-15.36 40.96-40.96v-46.08h92.16c20.48 0 40.96-15.36 40.96-40.96s-15.36-40.96-40.96-40.96h-92.16v-51.2H640z m-471.04-409.6h680.96c20.48 0 40.96-15.36 40.96-40.96s-15.36-40.96-40.96-40.96H168.96c-20.48 0-40.96 15.36-40.96 40.96s20.48 40.96 40.96 40.96z" p-id="1227"></path></svg>