<?xml version="1.0" standalone="no"?><!DOCTYPE svg PUBLIC "-//W3C//DTD SVG 1.1//EN" "http://www.w3.org/Graphics/SVG/1.1/DTD/svg11.dtd"><svg t="1691981015341" class="icon" viewBox="0 0 1024 1024" version="1.1" xmlns="http://www.w3.org/2000/svg" p-id="1513" xmlns:xlink="http://www.w3.org/1999/xlink" width="200" height="200"><path d="M921.6 880.64H102.4c-20.48 0-40.96 15.36-40.96 40.96s15.36 40.96 40.96 40.96h819.2c20.48 0 40.96-15.36 40.96-40.96s-20.48-40.96-40.96-40.96z m-819.2-71.68H256c20.48 0 40.96-15.36 40.96-40.96V552.96c0-15.36-10.24-30.72-25.6-35.84l-153.6-40.96c-15.36-5.12-30.72 0-40.96 5.12S61.44 501.76 61.44 512v256c0 20.48 20.48 40.96 40.96 40.96z m40.96-245.76l76.8 20.48v143.36h-76.8V563.2z m455.68-240.64l-204.8 92.16c-15.36 5.12-25.6 20.48-25.6 35.84V768c0 20.48 15.36 40.96 40.96 40.96h204.8c20.48 0 40.96-15.36 40.96-40.96V358.4c0-15.36-5.12-25.6-15.36-30.72-15.36-10.24-30.72-10.24-40.96-5.12z m-25.6 404.48H450.56v-256l128-56.32v312.32z m368.64-552.96c-10.24-5.12-25.6-5.12-35.84 0l-153.6 87.04c-10.24 5.12-20.48 20.48-20.48 35.84V768c0 20.48 15.36 40.96 40.96 40.96h153.6c20.48 0 40.96-15.36 40.96-40.96V204.8c-5.12-15.36-15.36-25.6-25.6-30.72z m-61.44 552.96h-76.8V312.32l76.8-40.96v455.68zM92.16 358.4L256 394.24h10.24c5.12 0 10.24 0 15.36-5.12l655.36-307.2c15.36-5.12 25.6-25.6 20.48-40.96-5.12-15.36-20.48-30.72-35.84-30.72H716.8c-20.48 0-40.96 15.36-40.96 40.96s15.36 40.96 40.96 40.96h30.72l-486.4 225.28-148.48-35.84c-20.48-5.12-40.96 10.24-46.08 30.72-5.12 20.48 5.12 40.96 25.6 46.08z" p-id="1514"></path></svg>