<?xml version="1.0" standalone="no"?><!DOCTYPE svg PUBLIC "-//W3C//DTD SVG 1.1//EN" "http://www.w3.org/Graphics/SVG/1.1/DTD/svg11.dtd"><svg t="1691980855950" class="icon" viewBox="0 0 1024 1024" version="1.1" xmlns="http://www.w3.org/2000/svg" p-id="938" xmlns:xlink="http://www.w3.org/1999/xlink" width="200" height="200"><path d="M870.4 404.48c-20.48 0-40.96 15.36-40.96 40.96v440.32s0 5.12-5.12 5.12H143.36c-5.12 0-5.12 0-5.12-5.12v-691.2s0-5.12 5.12-5.12H537.6c20.48 0 40.96-15.36 40.96-40.96s-15.36-40.96-40.96-40.96H143.36c-40.96 5.12-81.92 46.08-81.92 87.04v686.08c0 46.08 35.84 81.92 81.92 81.92h680.96c46.08 0 81.92-35.84 81.92-81.92V440.32c5.12-20.48-15.36-35.84-35.84-35.84z" p-id="939"></path><path d="M947.2 209.92L814.08 76.8c-15.36-15.36-40.96-15.36-56.32 0L384 455.68c-10.24 5.12-15.36 15.36-15.36 25.6V614.4c0 20.48 15.36 40.96 40.96 40.96h133.12c10.24 0 20.48-5.12 25.6-10.24L947.2 266.24c15.36-20.48 15.36-40.96 0-56.32zM527.36 573.44h-76.8v-76.8l337.92-337.92 76.8 76.8-337.92 337.92zM256 808.96h358.4c20.48 0 40.96-15.36 40.96-40.96S640 727.04 614.4 727.04H256c-20.48 0-40.96 15.36-40.96 40.96s20.48 40.96 40.96 40.96z" p-id="940"></path></svg>