<?xml version="1.0" standalone="no"?><!DOCTYPE svg PUBLIC "-//W3C//DTD SVG 1.1//EN" "http://www.w3.org/Graphics/SVG/1.1/DTD/svg11.dtd"><svg t="1691981089939" class="icon" viewBox="0 0 1024 1024" version="1.1" xmlns="http://www.w3.org/2000/svg" p-id="2093" xmlns:xlink="http://www.w3.org/1999/xlink" width="200" height="200"><path d="M977.92 296.96c0-5.12 0-10.24-5.12-15.36 0-5.12-5.12-10.24-10.24-10.24l-5.12-5.12L527.36 51.2c-10.24-5.12-25.6-5.12-35.84 0L66.56 266.24l-5.12 5.12c-5.12 0-5.12 5.12-10.24 10.24 0 5.12 0 5.12-5.12 10.24v430.08c0 15.36 10.24 25.6 20.48 35.84L496.64 972.8c5.12 0 10.24 5.12 15.36 5.12 5.12 0 10.24 0 15.36-5.12l424.96-215.04c15.36-5.12 20.48-20.48 20.48-35.84l5.12-424.96zM512 471.04l-128-66.56 343.04-168.96 128 61.44L512 471.04zM512 128l128 61.44-343.04 174.08-128-66.56L512 128zM122.88 358.4l348.16 174.08v343.04L122.88 701.44V358.4z m430.08 517.12V532.48L901.12 358.4v343.04L552.96 875.52z" p-id="2094"></path></svg>