<?xml version="1.0" standalone="no"?><!DOCTYPE svg PUBLIC "-//W3C//DTD SVG 1.1//EN" "http://www.w3.org/Graphics/SVG/1.1/DTD/svg11.dtd"><svg t="1691981075550" class="icon" viewBox="0 0 1024 1024" version="1.1" xmlns="http://www.w3.org/2000/svg" p-id="1948" xmlns:xlink="http://www.w3.org/1999/xlink" width="200" height="200"><path d="M512 204.8c19.505 0 39.01-14.629 39.01-39.01V97.524c0-19.505-14.629-39.01-39.01-39.01s-39.01 19.505-39.01 39.01v68.266c0 19.505 19.505 39.01 39.01 39.01z m224.305 78.019c9.752 0 19.505-4.876 29.257-14.629l39.01-48.761c14.628-14.629 9.752-39.01-4.877-53.639-14.628-14.628-39.01-9.752-53.638 4.877l-39.01 53.638c-14.628 14.628-9.752 39.01 4.877 53.638 4.876 4.876 14.628 4.876 24.38 4.876z m117.028 204.8h4.877l68.266-9.752c19.505-4.877 34.134-24.381 29.257-43.886-4.876-19.505-24.38-34.133-43.885-29.257l-68.267 9.752c-19.505 4.876-34.133 24.381-29.257 43.886 4.876 19.505 19.505 29.257 39.01 29.257z m-755.81-9.752l68.267 9.752h4.877c19.504 0 34.133-14.629 34.133-29.257 4.876-19.505-9.752-39.01-29.257-43.886l-63.39-9.752c-19.505-4.876-39.01 9.752-43.886 29.257-4.877 19.505 9.752 39.01 29.257 43.886z m165.791-204.8c4.876 4.876 14.629 9.752 24.381 9.752s14.629-4.876 24.381-9.752c14.629-9.753 19.505-34.134 4.876-48.762l-43.885-53.638c-9.753-14.629-34.134-14.629-48.762 0-14.629 9.752-19.505 34.133-4.876 48.762l43.885 53.638zM936.23 867.962h-165.79V546.133c0-141.41-117.03-258.438-258.439-258.438S253.562 404.724 253.562 546.133v321.829h-141.41c-19.504 0-39.01 14.628-39.01 39.01s14.63 39.009 39.01 39.009h828.953c19.505 0 39.01-14.629 39.01-39.01s-24.382-39.01-43.886-39.01zM326.705 546.133c0-102.4 82.895-185.295 185.295-185.295s185.295 82.895 185.295 185.295v321.829h-370.59V546.133z" p-id="1949"></path></svg>