<?xml version="1.0" standalone="no"?><!DOCTYPE svg PUBLIC "-//W3C//DTD SVG 1.1//EN" "http://www.w3.org/Graphics/SVG/1.1/DTD/svg11.dtd"><svg t="1700009852665" class="icon" viewBox="0 0 1024 1024" version="1.1" xmlns="http://www.w3.org/2000/svg" p-id="6103" xmlns:xlink="http://www.w3.org/1999/xlink" width="200" height="200"><path d="M15.52 1024V0" p-id="6104"></path><path d="M1008.154 874.85a37.671 37.671 0 0 0-36.459-37.267l-35.57-0.97 0.97-725.296h4.124a37.59 37.59 0 1 0 0-75.1H144.864a37.51 37.51 0 0 0-37.51 37.024v16.168a37.429 37.429 0 0 0 35.813 37.914h5.092l1.698 709.532h-35.57a37.59 37.59 0 0 0-37.51 37.753v44.947a37.429 37.429 0 0 0 37.51 37.186H500.48V753.186h119.4v204.768h351.089a37.429 37.429 0 0 0 37.51-37.833zM379.3 597.003l-8.65 40.42-111.236 72.756-13.823-13.743-13.824-13.742 73.322-110.428 40.42-8.084 91.673-91.187 33.386 33.144z m429.503 88.924a83.184 83.184 0 0 1-116.652 0L393.932 390.134a142.198 142.198 0 0 1-40.42-0.404 140.662 140.662 0 0 1-77.687-39.046 138.802 138.802 0 0 1-32.336-146.967l80.84 80.193a32.336 32.336 0 0 0 45.028 0l34.195-34.195a31.608 31.608 0 0 0 0-44.786l-82.618-81.89a141.39 141.39 0 0 1 153.596 30.153 138.398 138.398 0 0 1 40.42 86.013 143.814 143.814 0 0 1-1.698 38.157L808.48 570.326a81.487 81.487 0 0 1 0 115.763z m5.335-456.422L677.761 364.83l-16.976 16.895-1.132 0.97-22.473-22.392 160.467-159.417a9.62 9.62 0 0 0 0-13.904 9.862 9.862 0 0 0-13.985 0L623.113 346.399l-24.98-24.898 160.468-159.417a9.7 9.7 0 0 0 0-13.985 10.024 10.024 0 0 0-13.985 0l-160.63 159.497-22.392-22.393a13.824 13.824 0 0 0 0.89-1.131l17.865-17.785 135.245-134.194a69.927 69.927 0 0 1 98.302 0 68.633 68.633 0 0 1 0 97.573z" p-id="6105"></path><path d="M722.385 600.56a42.522 42.522 0 0 0 0 60.307 43.25 43.25 0 0 0 60.792 0 42.441 42.441 0 0 0 0-60.307 43.25 43.25 0 0 0-60.792 0z" p-id="6106"></path></svg>