<?xml version="1.0" standalone="no"?><!DOCTYPE svg PUBLIC "-//W3C//DTD SVG 1.1//EN" "http://www.w3.org/Graphics/SVG/1.1/DTD/svg11.dtd"><svg t="1700009870499" class="icon" viewBox="0 0 1024 1024" version="1.1" xmlns="http://www.w3.org/2000/svg" p-id="6379" xmlns:xlink="http://www.w3.org/1999/xlink" width="200" height="200"><path d="M707 84.2l76 55.6c7.6 5.4 13.8 17.6 13.8 26.8v396.6c23.8 1 47 4.8 68.8 11.8v-442c0-9.2-6.2-21.4-13.8-26.8L719.4 9.6c-7.4-5.4-21-7.6-30-4.8L285.4 114c-9 3-16.4 12.8-16.4 22v79.4h0.4c0 18.6 15.4 33.6 34.4 33.6s34.4-15 34.4-33.6V181c1.6-8.2 8-16.2 16-18.8l322.6-82.8c9.2-2.8 22.6-0.6 30.2 4.8zM967.2 779.2h-33c-3.4-11.6-7.8-22.6-13.8-33l23.8-23.6c10.6-10.6 10.6-28 0-38.6l-19.4-19.4c-10.6-10.6-28-10.6-38.6 0L862 688.8c-9.6-5.2-20-9.4-30.8-12.4v-33c0-15-12.2-27.2-27.2-27.2h-27.2c-15 0-27.2 12.2-27.2 27.2v33c-11.2 3.2-21.8 7.4-31.8 13l-25-24.8c-5.2-5.2-12-8-19.2-8-7.2 0-14.2 2.8-19.4 8l-19.4 19.4c-10.6 10.6-10.6 28 0 38.6l24.8 24.8c-5.6 10-10 20.6-13 31.8h-33c-15 0-27.2 12.2-27.2 27.2v27.2c0 15 12.2 27.2 27.2 27.2h33c3 10.8 7.2 21 12.4 30.8l-24.2 24c-10.6 10.6-10.6 28 0 38.6l19.4 19.4c10.6 10.6 28 10.6 38.6 0l23.8-23.8c10.4 6 21.4 10.6 33 13.6v33c0 7.2 2.8 14.2 8 19.2 5 5 12 8 19.2 8H804c7.2 0 14.2-2.8 19.2-8 5-5 8-12 8-19.2v-33c11-3 21.8-7.4 31.8-13l23.2 23c10.6 10.6 28 10.6 38.6 0l19.4-19.4c10.6-10.6 10.6-28 0-38.6l-23-23c5.6-10 10-20.8 13-31.8h33c7.2 0 14.2-2.8 19.2-8 5-5 8-12 8-19.2v-27.2c0-14.8-12.2-27-27.2-27zM835.4 898c-27.8 16.2-62 16.2-89.8 0-27.8-16.2-44.6-46-44.4-78.2 0.6-48.8 40.4-88.2 89.2-88.2 48.8 0 88.6 39.2 89.2 88.2 0.6 32.2-16.4 62-44.2 78.2z" p-id="6380"></path><path d="M714.4 285.4l-130.2-101.2c-7.4-5.8-20.8-7.8-29.6-4.4L114.2 349.6c-8.8 3.4-16 14-16 23.4L98 889.6H63.8c-19 0-34.4 26-34.4 45s15.4 34.4 34.4 34.4H582c-31.6-43.6-48.8-96-48.8-150 0-120.2 83-221 194.8-248.6V313.2c0-9.6-6.2-22-13.6-27.8zM459.2 893l-266.2-3.4 0.2-452c0-9.4 7.2-20 16-23.4l334.6-127.6c8.8-3.4 22.2-1.4 29.6 4.4l45.8 48.4c7.4 5.8 13.6 18.2 13.6 27.8v150.6c-150.2 53.8-217 222.8-173.6 375.2z" p-id="6381"></path><path d="M498.4 495.8c0 21.4-13.8 38.6-30.8 38.6H263.2c-17 0-30.8-17.2-30.8-38.6 0-21.4 13.8-38.6 30.8-38.6h204.6c17 0 30.6 17.4 30.6 38.6z m-80 146.4c0 21.4-13.8 38.6-30.8 38.6h-126c-17 0-30.8-17.2-30.8-38.6 0-21.4 13.8-38.6 30.8-38.6h126c17 0 30.8 17.2 30.8 38.6z m-28.2 145.6c0 21.4-13.8 38.6-30.8 38.6h-97.8c-17 0-30.8-17.2-30.8-38.6 0-21.4 13.8-38.6 30.8-38.6h97.8c17 0 30.8 17.4 30.8 38.6z m0 0" p-id="6382"></path></svg>