<?xml version="1.0" standalone="no"?><!DOCTYPE svg PUBLIC "-//W3C//DTD SVG 1.1//EN" "http://www.w3.org/Graphics/SVG/1.1/DTD/svg11.dtd"><svg t="1700009839446" class="icon" viewBox="0 0 1024 1024" version="1.1" xmlns="http://www.w3.org/2000/svg" p-id="5955" xmlns:xlink="http://www.w3.org/1999/xlink" width="200" height="200"><path d="M688.94 770.84L545.3 843.16a0.444 0.444 0 0 1-0.64-0.4V590.85c0-3.17 1.75-6.08 4.55-7.57l335.44-178.36c5.7-3.03 12.59 1.09 12.6 7.55l0.37 132.91c0.05 17.64 14.37 31.91 32 31.91h0.09c17.67-0.05 31.96-14.42 31.91-32.09l-0.55-200.24v-0.08c0-0.66-0.03-1.32-0.07-1.98v-0.04c-0.05-0.67-0.11-1.34-0.2-2.01l-0.03-0.21c-0.08-0.54-0.17-1.09-0.27-1.63-0.03-0.17-0.07-0.34-0.1-0.51-0.1-0.48-0.21-0.97-0.34-1.45-0.03-0.13-0.06-0.27-0.1-0.4-0.16-0.59-0.34-1.17-0.53-1.75-0.05-0.14-0.1-0.29-0.15-0.43-0.16-0.45-0.32-0.89-0.5-1.33-0.07-0.17-0.14-0.34-0.21-0.5-0.2-0.48-0.41-0.96-0.64-1.43-0.04-0.08-0.08-0.17-0.12-0.25-0.28-0.58-0.59-1.16-0.91-1.72-0.02-0.03-0.03-0.05-0.05-0.08-0.3-0.53-0.63-1.06-0.96-1.58-0.04-0.07-0.09-0.13-0.13-0.2a31.878 31.878 0 0 0-3.74-4.65l-0.05-0.05c-0.46-0.48-0.94-0.94-1.44-1.39l-0.02-0.02c-0.99-0.89-2.04-1.72-3.15-2.5l-0.28-0.19c-0.43-0.29-0.87-0.58-1.32-0.85-0.08-0.05-0.16-0.11-0.25-0.16-0.06-0.04-0.13-0.07-0.2-0.11-0.44-0.26-0.89-0.51-1.35-0.75-0.12-0.06-0.24-0.13-0.36-0.2-0.03-0.02-0.06-0.03-0.09-0.05L718.69 202.81l-0.24-0.12-192.01-97.1a31.995 31.995 0 0 0-28.83-0.02L78.76 316.47c-0.06 0.03-0.11 0.06-0.17 0.09-0.16 0.08-0.31 0.17-0.47 0.25-0.42 0.23-0.84 0.46-1.25 0.7-0.08 0.05-0.16 0.09-0.24 0.13-0.08 0.05-0.15 0.1-0.23 0.15-0.47 0.29-0.93 0.58-1.37 0.89-0.07 0.05-0.14 0.09-0.21 0.14-1.11 0.78-2.16 1.62-3.15 2.51-0.03 0.02-0.05 0.05-0.08 0.07-0.49 0.45-0.96 0.9-1.42 1.38l-0.01 0.01c-0.95 0.98-1.82 2.01-2.63 3.08-0.02 0.02-0.03 0.04-0.05 0.06-0.37 0.5-0.72 1-1.06 1.52-0.04 0.06-0.08 0.13-0.13 0.19-0.7 1.08-1.33 2.2-1.89 3.35-0.02 0.03-0.03 0.07-0.05 0.1-0.31 0.66-0.61 1.33-0.88 2.01-0.01 0.03-0.02 0.06-0.04 0.09-0.19 0.47-0.36 0.95-0.53 1.43-0.04 0.11-0.08 0.21-0.11 0.32-0.19 0.58-0.36 1.16-0.52 1.74-0.06 0.23-0.11 0.46-0.18 0.69-0.13 0.45-0.22 0.92-0.31 1.38l-0.06 0.31c-0.24 1.26-0.41 2.54-0.5 3.83 0 0.06-0.01 0.12-0.01 0.17-0.04 0.63-0.06 1.27-0.06 1.9V685.26c0 12.11 6.84 23.19 17.67 28.61l419.18 210c0.01 0.01 0.03 0.01 0.04 0.02l0.3 0.15c0.39 0.2 0.79 0.37 1.18 0.55l0.51 0.24c0.62 0.27 1.25 0.51 1.88 0.74 0.18 0.06 0.37 0.12 0.55 0.18 0.46 0.16 0.93 0.31 1.4 0.44 0.24 0.07 0.48 0.13 0.71 0.19 0.42 0.11 0.83 0.21 1.25 0.3 0.27 0.06 0.54 0.11 0.81 0.17 0.39 0.07 0.77 0.14 1.16 0.2 0.3 0.05 0.6 0.09 0.9 0.13 0.35 0.04 0.71 0.08 1.06 0.11 0.33 0.03 0.66 0.07 0.99 0.09 0.15 0.01 0.31 0.01 0.46 0.02 0.72 0.02 1.44 0.06 2.15 0.04 1.19-0.03 2.39-0.13 3.58-0.29l0.24-0.03c0.62-0.09 1.23-0.19 1.84-0.32l0.32-0.06c0.6-0.13 1.2-0.27 1.79-0.44 0.1-0.03 0.19-0.05 0.29-0.08 0.67-0.19 1.34-0.4 2-0.64 0.01 0 0.02-0.01 0.02-0.01 0.66-0.24 1.32-0.5 1.98-0.79 0.17-0.08 0.34-0.16 0.52-0.24 0.37-0.17 0.75-0.34 1.12-0.52L717.72 828c15.79-7.95 22.14-27.19 14.19-42.97-7.95-15.78-27.19-22.14-42.97-14.19z m-511.1-432.61l330.26-166.3a8.62 8.62 0 0 1 7.73 0.01l105.83 53.52c6.13 3.1 6.31 11.79 0.32 15.14L306.53 417.06a8.565 8.565 0 0 1-8.19 0.1l-120.65-63.68c-6.16-3.25-6.08-12.11 0.15-15.25z m302.82 491.49c0 6.38-6.72 10.53-12.42 7.67l-338.36-169.5a8.58 8.58 0 0 1-4.74-7.67V412.35c0.01-6.46 6.88-10.6 12.59-7.58l338.36 178.58a8.571 8.571 0 0 1 4.57 7.59v238.78z m35.96-301.6a8.58 8.58 0 0 1-8.03 0.01l-124.72-65.82c-6.01-3.17-6.12-11.75-0.18-15.07l317.22-177.45a8.584 8.584 0 0 1 8.06-0.17L844.8 338.3c6.2 3.14 6.29 11.96 0.16 15.23L516.62 528.12z" p-id="5956"></path><path d="M778.86 628l46.37-46.95c1.38-1.39 2.49-2.94 3.38-4.59 4.1-7.62 2.91-17.31-3.55-23.7-7.86-7.76-20.52-7.68-28.28 0.18l-80 81a19.99 19.99 0 0 0-4.22 21.76c3.1 7.45 10.37 12.3 18.44 12.3h230.62c11.05 0 20-8.95 20-20s-8.95-20-20-20H778.86zM961.62 687H731c-11.05 0-20 8.95-20 20s8.95 20 20 20h182.76l-46.37 46.95a19.839 19.839 0 0 0-3.38 4.59c-4.1 7.62-2.91 17.31 3.55 23.7 3.9 3.85 8.98 5.77 14.05 5.77 5.16 0 10.32-1.99 14.23-5.95l80-81a19.99 19.99 0 0 0 4.22-21.76 19.966 19.966 0 0 0-18.44-12.3zM348.4 556.23c-26.06-19.53-55.42-31.65-82.68-34.12-29.02-2.63-52.45 5.86-65.98 23.91-13.53 18.05-15.11 42.93-4.44 70.04 10.02 25.47 29.89 50.25 55.95 69.78 26.06 19.53 55.42 31.65 82.68 34.12 3.46 0.31 6.84 0.47 10.14 0.47 24.33 0 43.93-8.49 55.84-24.38 13.53-18.05 15.11-42.93 4.44-70.04-10.02-25.47-29.89-50.25-55.95-69.78z m35.5 127.83c-9.22 12.29-26.32 17.97-48.17 15.99-23.61-2.14-49.35-12.87-72.49-30.21-23.13-17.34-40.65-39.04-49.33-61.1-8.03-20.42-7.38-38.43 1.83-50.72 8.01-10.69 21.99-16.38 39.87-16.38 2.68 0 5.45 0.13 8.31 0.39 23.61 2.14 49.35 12.87 72.49 30.21 23.13 17.34 40.65 39.04 49.33 61.1 8.03 20.41 7.37 38.42-1.84 50.72z" p-id="5957"></path><path d="M276.99 640.6c4.74 0.18 14.09 1.8 28.07 4.86 0.07-1.97 0.27-4.72 0.58-8.25l24.93 25.04 10.04-3.93c-4.25-4.25-8.87-8.75-13.84-13.49 5.38-0.2 10.92-0.55 16.61-1.05l-8.36-11.36 1.39-37.26-61.79-25.06-1.96 52.65c-0.2 3.46-1.36 5.69-3.47 6.69l5.42 9.86c-5.7-3.27-10.01-7.02-12.93-11.25l1.32-35.59-24-9.75-0.42 11.32 10.3 4.18-0.86 23.11c-4.23 1.04-7.97 2.06-11.24 3.06l5.76 15.65 12.34-5.79c3.36 4.41 7.1 8.07 11.24 10.98 4.14 2.91 7.88 5.08 11.24 6.5l23.43 9.85 39.1 16.21c1.43-2.55 3.36-5.57 5.79-9.05-16.37-6.41-29.94-11.8-40.71-16.17-14.32-5.81-23.64-9.8-27.98-11.96z m39.42-5.68l-12.25-11.41 23.94 9.71c-3.81 0.66-7.71 1.22-11.69 1.7z m-28.15-49.03L322 599.58l-0.21 5.75-33.74-13.69 0.21-5.75z m-0.55 14.84l33.74 13.69-0.21 5.75-33.74-13.69 0.21-5.75z m-0.59 15.86l16.21 6.58-8.68 3.18 8.31 8.2c-6.03-1.26-11.5-2.36-16.39-3.3l0.55-14.66z" p-id="5958"></path><path d="M268.35 580c-3.7-6.09-8.59-13.38-14.64-21.87l-12.06 1.29c4.35 6.58 8.86 13.92 13.53 22.02l13.17-1.44z" p-id="5959"></path></svg>