<?xml version="1.0" standalone="no"?><!DOCTYPE svg PUBLIC "-//W3C//DTD SVG 1.1//EN" "http://www.w3.org/Graphics/SVG/1.1/DTD/svg11.dtd"><svg t="1700009859706" class="icon" viewBox="0 0 1024 1024" version="1.1" xmlns="http://www.w3.org/2000/svg" p-id="6244" xmlns:xlink="http://www.w3.org/1999/xlink" width="200" height="200"><path d="M981.227848 161.258731c-4.863774 3.869121-6.120394 7.649214-5.713119 13.623275 1.031493 14.85022-2.689249 28.149107-15.801894 37.157271-6.528694 4.492314-13.948687 6.511297-21.74628 7.526417-11.903098 1.538029-23.831778 1.11745-35.297924-1.90335-19.342534-5.096065-36.729529-20.066011-34.704406-46.404889l-0.540306-0.069585-0.51063 0.192382c-6.096858 15.162328-20.546965 22.675442-38.96136 20.324908-8.697079-1.11438-17.231453-2.914376-25.327852-6.296403-3.431146-1.441838-5.868661-0.941442-8.872065 1.38965-12.088316 9.376555-25.330922 16.395412-40.784892 18.596544-7.91425 1.136893-15.470343 0.085958-22.788006-2.927679-1.687432-0.689708-2.980891-1.727341-3.968381 0.971118-5.142114 14.028505-16.004509 22.598694-28.835745 28.868491-4.572132 2.231831-6.05081 4.724605-5.590322 9.721409 0.663102 7.191796-0.218988 14.309914-4.317329 20.686135-1.409093 2.201132-3.056616 3.975545-5.328355 5.202489-6.319939 3.408633-8.242731 2.499937-9.213849-4.439102-3.189645-22.807449-4.177136-45.598524 1.355881-68.211545 2.473331-10.125615 6.65763-19.442818 14.807241-26.435069 1.919722-1.644453 2.480494-3.587712 2.88777-6.000668 2.65548-15.507182 7.884574-29.982872 18.430768-42.021046 15.941064-18.215874 36.776601-24.448832 60.127426-23.331381 6.42841 0.304945 10.178827-0.88823 13.994736-6.617721 17.60189-26.448372 46.447868-37.114293 77.262688-29.207206 4.569062 1.163499 8.388041 0.914836 12.70844-1.213641 14.369266-7.072069 29.478382-11.895935 45.62206-12.754488 31.232328-1.674129 52.296063 11.537777 64.637136 40.234353 5.069459 11.786441 7.828292 24.326035 11.093662 36.59036C999.837694 139.452075 992.925261 151.958924 981.227848 161.258731zM726.993562 293.619294c-0.192382 87.580684-0.106424 175.154205-0.225127 262.73489-0.00614 4.545526 1.034563 7.052626 5.54018 9.200546 32.025391 15.254425 63.831794 30.986735 95.816253 46.331211 3.928472 1.890047 5.079692 4.058432 5.072529 8.318456-0.128937 116.705002-0.1361 233.416144 0 350.120123 0.00614 4.687766-0.898463 6.130627-5.928013 6.130627-261.734096-0.1361-523.471262-0.1361-785.211499-0.013303-4.840238 0-6.04467-1.233084-6.04467-6.053879 0.125867-225.654366 0.13303-451.294406-0.013303-676.93854-0.00614-5.182023 1.306762-6.395664 6.398734-6.362918 37.528732 0.218988 75.061556 0.1361 112.586195 0.042979 3.614317-0.00614 6.79066 0.792039 10.026354 2.371 138.056286 67.196425 276.140201 134.343731 414.223093 201.486944 1.714038 0.831948 3.457752 1.598404 6.107091 2.812045l0-7.344269c0-87.185688 0.066515-174.381609-0.152473-261.571391-0.010233-5.805216 1.651616-7.015787 7.118118-6.856152 13.5936 0.408299 27.217898 0.278339 40.824801 0.050142 4.01136-0.076748 5.285377 0.948605 5.235235 5.106298-0.218988 19.2269 0.085958 38.44766-0.211824 57.674561-0.079818 4.976338 0.951675 6.564509 6.28617 6.488785 25.267477-0.331551 50.559513-0.013303 75.833129-0.291642C725.458603 287.001573 727.006865 288.158932 726.993562 293.619294zM195.806571 637.46041c0.013303-4.999874-1.49505-5.988388-6.179746-5.928013-19.635199 0.265036-39.272445 0.278339-58.904575 0-4.721535-0.066515-6.160303 0.921999-6.130627 5.921873 0.211824 44.067658 0.125867 88.144526 0.125867 132.211161 0 44.070728 0.079818 88.137363-0.119727 132.211161-0.019443 4.708232 1.349741 5.729491 5.825682 5.676279 19.823488-0.23536 39.654138-0.229221 59.484789 0 4.409426 0.042979 5.91164-0.865717 5.898337-5.669116C195.651029 813.738205 195.644889 725.603913 195.806571 637.46041zM296.437479 631.55184c-19.823488 0.211824-39.660278 0.258896-59.484789-0.019443-4.748141-0.066515-6.157233 0.984421-6.130627 5.948479 0.211824 43.878346 0.125867 87.756693 0.125867 131.638109 0 44.26311 0.046049 88.525196-0.089028 132.791375-0.010233 4.091178 0.603751 5.732561 5.281283 5.662977 20.211321-0.288572 40.440038-0.229221 60.651358-0.026606 4.018523 0.042979 5.241374-0.954745 5.238304-5.112438-0.119727-88.538499-0.13303-177.060625 0.019443-265.589914C302.060547 632.218012 300.565497 631.511931 296.437479 631.55184zM408.265404 636.303051c0.00614-3.965312-1.25969-4.764514-4.930289-4.734838-20.023032 0.165776-40.052205 0.321318-60.068074-0.076748-5.513574-0.115634-6.197142 1.747807-6.183839 6.531763 0.182149 43.878346 0.106424 87.756693 0.106424 131.634016 0 43.871183 0.109494 87.74953-0.146333 131.627876-0.032746 5.337565 1.499144 6.355755 6.478552 6.28003 19.823488-0.281409 39.664372-0.222057 59.493999-0.019443 3.965312 0.032746 5.258771-0.858554 5.254677-5.066389C408.145677 813.745369 408.145677 725.027791 408.265404 636.303051z" p-id="6245"></path></svg>